<mxfile host="app.diagrams.net" agent="Mozilla/5.0 (Macintosh; Intel Mac OS X 10.15; rv:138.0) Gecko/20100101 Firefox/138.0" version="26.2.9">
  <diagram name="Page-1" id="feDEonG_GhGZAcAuTtfp">
    <mxGraphModel dx="1020" dy="594" grid="1" gridSize="10" guides="1" tooltips="1" connect="1" arrows="1" fold="1" page="1" pageScale="1" pageWidth="850" pageHeight="1100" math="0" shadow="0">
      <root>
        <mxCell id="0" />
        <mxCell id="1" parent="0" />
        <mxCell id="mhO_zlr5VFB4F2ZDH6fh-1" value="&lt;div&gt;User&lt;/div&gt;&lt;div&gt;&lt;br&gt;&lt;/div&gt;" style="shape=umlActor;verticalLabelPosition=bottom;verticalAlign=top;html=1;outlineConnect=0;strokeColor=light-dark(#000000,#000000);fontColor=light-dark(#000000,#000000);fillColor=light-dark(#FFFFFF,transparent);" vertex="1" parent="1">
          <mxGeometry x="90" y="280" width="30" height="60" as="geometry" />
        </mxCell>
        <mxCell id="mhO_zlr5VFB4F2ZDH6fh-2" value="Client Side" style="swimlane;whiteSpace=wrap;html=1;startSize=30;strokeColor=light-dark(#000000,#000000);fontColor=light-dark(#000000,#000000);fillColor=light-dark(#FFFFFF,transparent);" vertex="1" parent="1">
          <mxGeometry x="200" y="140" width="200" height="330" as="geometry" />
        </mxCell>
        <mxCell id="mhO_zlr5VFB4F2ZDH6fh-3" value="Log Daily Activity" style="rounded=1;whiteSpace=wrap;html=1;strokeColor=light-dark(#000000,#000000);fontColor=light-dark(#000000,#000000);fillColor=light-dark(#FFFFFF,transparent);" vertex="1" parent="mhO_zlr5VFB4F2ZDH6fh-2">
          <mxGeometry x="40" y="60" width="120" height="60" as="geometry" />
        </mxCell>
        <mxCell id="mhO_zlr5VFB4F2ZDH6fh-7" value="Buy Seeds in Shop" style="rounded=1;whiteSpace=wrap;html=1;strokeColor=light-dark(#000000,#000000);fontColor=light-dark(#000000,#000000);fillColor=light-dark(#FFFFFF,transparent);" vertex="1" parent="mhO_zlr5VFB4F2ZDH6fh-2">
          <mxGeometry x="40" y="145" width="120" height="60" as="geometry" />
        </mxCell>
        <mxCell id="mhO_zlr5VFB4F2ZDH6fh-11" value="Plant Seeds in Garden" style="rounded=1;whiteSpace=wrap;html=1;strokeColor=light-dark(#000000,#000000);fontColor=light-dark(#000000,#000000);fillColor=light-dark(#FFFFFF,transparent);" vertex="1" parent="mhO_zlr5VFB4F2ZDH6fh-2">
          <mxGeometry x="40" y="230" width="120" height="60" as="geometry" />
        </mxCell>
        <mxCell id="mhO_zlr5VFB4F2ZDH6fh-14" value="" style="endArrow=classic;html=1;rounded=0;entryX=0;entryY=1;entryDx=0;entryDy=-15;entryPerimeter=0;strokeColor=light-dark(#000000,#000000);fontColor=light-dark(#000000,#000000);fillColor=light-dark(#FFFFFF,transparent);" edge="1" parent="mhO_zlr5VFB4F2ZDH6fh-2" target="mhO_zlr5VFB4F2ZDH6fh-12">
          <mxGeometry width="50" height="50" relative="1" as="geometry">
            <mxPoint x="160" y="260" as="sourcePoint" />
            <mxPoint x="200" y="220" as="targetPoint" />
          </mxGeometry>
        </mxCell>
        <mxCell id="mhO_zlr5VFB4F2ZDH6fh-6" value="Server Side" style="swimlane;whiteSpace=wrap;html=1;strokeColor=light-dark(#000000,#000000);fontColor=light-dark(#000000,#000000);fillColor=light-dark(#FFFFFF,transparent);" vertex="1" parent="1">
          <mxGeometry x="480" y="140" width="200" height="330" as="geometry">
            <mxRectangle x="480" y="140" width="100" height="30" as="alternateBounds" />
          </mxGeometry>
        </mxCell>
        <mxCell id="mhO_zlr5VFB4F2ZDH6fh-5" value="Points Calculated" style="rounded=1;whiteSpace=wrap;html=1;strokeColor=light-dark(#000000,#000000);fontColor=light-dark(#000000,#000000);fillColor=light-dark(#FFFFFF,transparent);" vertex="1" parent="mhO_zlr5VFB4F2ZDH6fh-6">
          <mxGeometry x="40" y="60" width="120" height="60" as="geometry" />
        </mxCell>
        <mxCell id="mhO_zlr5VFB4F2ZDH6fh-16" value="" style="endArrow=classic;html=1;rounded=0;entryX=1;entryY=0.5;entryDx=0;entryDy=0;entryPerimeter=0;strokeColor=light-dark(#000000,#000000);fontColor=light-dark(#000000,#000000);fillColor=light-dark(#FFFFFF,transparent);" edge="1" parent="mhO_zlr5VFB4F2ZDH6fh-6" target="mhO_zlr5VFB4F2ZDH6fh-12">
          <mxGeometry width="50" height="50" relative="1" as="geometry">
            <mxPoint x="100" y="120" as="sourcePoint" />
            <mxPoint x="150" y="70" as="targetPoint" />
          </mxGeometry>
        </mxCell>
        <mxCell id="mhO_zlr5VFB4F2ZDH6fh-18" value="GCP Oauth Handling" style="rounded=1;whiteSpace=wrap;html=1;strokeColor=light-dark(#000000,#000000);fontColor=light-dark(#000000,#000000);fillColor=light-dark(#FFFFFF,transparent);" vertex="1" parent="mhO_zlr5VFB4F2ZDH6fh-6">
          <mxGeometry x="40" y="250" width="120" height="60" as="geometry" />
        </mxCell>
        <mxCell id="mhO_zlr5VFB4F2ZDH6fh-4" value="" style="endArrow=classic;html=1;rounded=0;entryX=0;entryY=0.5;entryDx=0;entryDy=0;strokeColor=light-dark(#000000,#000000);fontColor=light-dark(#000000,#000000);fillColor=light-dark(#FFFFFF,transparent);" edge="1" parent="1" target="mhO_zlr5VFB4F2ZDH6fh-5">
          <mxGeometry width="50" height="50" relative="1" as="geometry">
            <mxPoint x="360" y="229.5" as="sourcePoint" />
            <mxPoint x="500" y="229.5" as="targetPoint" />
          </mxGeometry>
        </mxCell>
        <mxCell id="mhO_zlr5VFB4F2ZDH6fh-8" value="" style="endArrow=classic;html=1;rounded=0;strokeColor=light-dark(#000000,#000000);fontColor=light-dark(#000000,#000000);fillColor=light-dark(#FFFFFF,transparent);" edge="1" parent="1">
          <mxGeometry width="50" height="50" relative="1" as="geometry">
            <mxPoint x="140" y="310" as="sourcePoint" />
            <mxPoint x="230" y="240" as="targetPoint" />
          </mxGeometry>
        </mxCell>
        <mxCell id="mhO_zlr5VFB4F2ZDH6fh-9" value="" style="endArrow=classic;html=1;rounded=0;strokeColor=light-dark(#000000,#000000);fontColor=light-dark(#000000,#000000);fillColor=light-dark(#FFFFFF,transparent);" edge="1" parent="1">
          <mxGeometry width="50" height="50" relative="1" as="geometry">
            <mxPoint x="140" y="320" as="sourcePoint" />
            <mxPoint x="230" y="320" as="targetPoint" />
          </mxGeometry>
        </mxCell>
        <mxCell id="mhO_zlr5VFB4F2ZDH6fh-10" value="" style="endArrow=classic;html=1;rounded=0;strokeColor=light-dark(#000000,#000000);fontColor=light-dark(#000000,#000000);fillColor=light-dark(#FFFFFF,transparent);" edge="1" parent="1">
          <mxGeometry width="50" height="50" relative="1" as="geometry">
            <mxPoint x="150" y="330" as="sourcePoint" />
            <mxPoint x="230" y="400" as="targetPoint" />
          </mxGeometry>
        </mxCell>
        <mxCell id="mhO_zlr5VFB4F2ZDH6fh-12" value="&lt;div&gt;Supabase&lt;/div&gt;&lt;div&gt;DB&lt;/div&gt;" style="shape=cylinder3;whiteSpace=wrap;html=1;boundedLbl=1;backgroundOutline=1;size=15;strokeColor=light-dark(#000000,#000000);fontColor=light-dark(#000000,#000000);fillColor=light-dark(#FFFFFF,transparent);" vertex="1" parent="1">
          <mxGeometry x="410" y="290" width="60" height="80" as="geometry" />
        </mxCell>
        <mxCell id="mhO_zlr5VFB4F2ZDH6fh-17" value="" style="endArrow=classic;startArrow=classic;html=1;rounded=0;exitX=1;exitY=0.5;exitDx=0;exitDy=0;entryX=0;entryY=0.5;entryDx=0;entryDy=0;entryPerimeter=0;strokeColor=light-dark(#000000,#000000);fontColor=light-dark(#000000,#000000);fillColor=light-dark(#FFFFFF,transparent);" edge="1" parent="1" source="mhO_zlr5VFB4F2ZDH6fh-7" target="mhO_zlr5VFB4F2ZDH6fh-12">
          <mxGeometry width="50" height="50" relative="1" as="geometry">
            <mxPoint x="360" y="370" as="sourcePoint" />
            <mxPoint x="410" y="320" as="targetPoint" />
          </mxGeometry>
        </mxCell>
        <mxCell id="mhO_zlr5VFB4F2ZDH6fh-19" value="" style="endArrow=classic;html=1;rounded=0;entryX=0.5;entryY=1;entryDx=0;entryDy=0;strokeColor=light-dark(#000000,#000000);fontColor=light-dark(#000000,#000000);fillColor=light-dark(#FFFFFF,transparent);" edge="1" parent="1" target="mhO_zlr5VFB4F2ZDH6fh-18">
          <mxGeometry width="50" height="50" relative="1" as="geometry">
            <mxPoint x="80" y="320" as="sourcePoint" />
            <mxPoint x="150" y="330" as="targetPoint" />
            <Array as="points">
              <mxPoint x="20" y="320" />
              <mxPoint x="20" y="530" />
              <mxPoint x="580" y="530" />
            </Array>
          </mxGeometry>
        </mxCell>
        <mxCell id="mhO_zlr5VFB4F2ZDH6fh-20" value="" style="endArrow=classic;startArrow=classic;html=1;rounded=0;entryX=0;entryY=0.5;entryDx=0;entryDy=0;exitX=0.5;exitY=1;exitDx=0;exitDy=0;exitPerimeter=0;strokeColor=light-dark(#000000,#000000);fontColor=light-dark(#000000,#000000);fillColor=light-dark(#FFFFFF,transparent);" edge="1" parent="1" source="mhO_zlr5VFB4F2ZDH6fh-12" target="mhO_zlr5VFB4F2ZDH6fh-18">
          <mxGeometry width="50" height="50" relative="1" as="geometry">
            <mxPoint x="440" y="380" as="sourcePoint" />
            <mxPoint x="490" y="330" as="targetPoint" />
          </mxGeometry>
        </mxCell>
        <mxCell id="mhO_zlr5VFB4F2ZDH6fh-21" value="# Hours Slept &amp;amp; mL Water Drank" style="ellipse;whiteSpace=wrap;html=1;strokeColor=light-dark(#000000,#000000);fontColor=light-dark(#000000,#000000);fillColor=light-dark(#FFFFFF,transparent);" vertex="1" parent="1">
          <mxGeometry x="45" y="380" width="120" height="80" as="geometry" />
        </mxCell>
        <mxCell id="mhO_zlr5VFB4F2ZDH6fh-22" value="" style="endArrow=classic;html=1;rounded=0;entryX=0.5;entryY=1;entryDx=0;entryDy=0;strokeColor=light-dark(#000000,#000000);fontColor=light-dark(#000000,#000000);fillColor=light-dark(#FFFFFF,transparent);" edge="1" parent="1" target="mhO_zlr5VFB4F2ZDH6fh-11">
          <mxGeometry width="50" height="50" relative="1" as="geometry">
            <mxPoint x="110" y="460" as="sourcePoint" />
            <mxPoint x="160" y="410" as="targetPoint" />
            <Array as="points">
              <mxPoint x="110" y="510" />
              <mxPoint x="300" y="510" />
            </Array>
          </mxGeometry>
        </mxCell>
        <mxCell id="mhO_zlr5VFB4F2ZDH6fh-23" value="Grow Plants w/ Sunlight &amp;amp; Water" style="text;html=1;align=center;verticalAlign=middle;whiteSpace=wrap;rounded=0;strokeColor=none;fontColor=light-dark(#000000,#000000);fillColor=light-dark(#FFFFFF,transparent);" vertex="1" parent="1">
          <mxGeometry x="110" y="484" width="190" height="30" as="geometry" />
        </mxCell>
      </root>
    </mxGraphModel>
  </diagram>
</mxfile>
